<mxfile host="app.diagrams.net" agent="Mozilla/5.0 (Windows NT 10.0; Win64; x64) AppleWebKit/537.36 (KHTML, like Gecko) Chrome/131.0.0.0 Safari/537.36 OPR/116.0.0.0" version="26.0.15">
  <diagram name="Seite-1" id="DfPdYTXLXnSN6vnyq1ma">
    <mxGraphModel dx="2300" dy="1243" grid="1" gridSize="10" guides="1" tooltips="1" connect="1" arrows="1" fold="1" page="1" pageScale="1" pageWidth="827" pageHeight="1169" math="0" shadow="0">
      <root>
        <mxCell id="0" />
        <mxCell id="1" parent="0" />
        <mxCell id="bOV27ZRf-qqVnHiNed2t-1" value="IngredientController" style="swimlane;fontStyle=1;align=center;verticalAlign=top;childLayout=stackLayout;horizontal=1;startSize=26;horizontalStack=0;resizeParent=1;resizeParentMax=0;resizeLast=0;collapsible=1;marginBottom=0;whiteSpace=wrap;html=1;" vertex="1" parent="1">
          <mxGeometry x="789" y="90" width="380" height="164" as="geometry" />
        </mxCell>
        <mxCell id="bOV27ZRf-qqVnHiNed2t-2" value="- database : Database" style="text;strokeColor=none;fillColor=none;align=left;verticalAlign=top;spacingLeft=4;spacingRight=4;overflow=hidden;rotatable=0;points=[[0,0.5],[1,0.5]];portConstraint=eastwest;whiteSpace=wrap;html=1;" vertex="1" parent="bOV27ZRf-qqVnHiNed2t-1">
          <mxGeometry y="26" width="380" height="26" as="geometry" />
        </mxCell>
        <mxCell id="bOV27ZRf-qqVnHiNed2t-3" value="" style="line;strokeWidth=1;fillColor=none;align=left;verticalAlign=middle;spacingTop=-1;spacingLeft=3;spacingRight=3;rotatable=0;labelPosition=right;points=[];portConstraint=eastwest;strokeColor=inherit;" vertex="1" parent="bOV27ZRf-qqVnHiNed2t-1">
          <mxGeometry y="52" width="380" height="8" as="geometry" />
        </mxCell>
        <mxCell id="bOV27ZRf-qqVnHiNed2t-4" value="+ GetIngredients() : IActionResult" style="text;strokeColor=none;fillColor=none;align=left;verticalAlign=top;spacingLeft=4;spacingRight=4;overflow=hidden;rotatable=0;points=[[0,0.5],[1,0.5]];portConstraint=eastwest;whiteSpace=wrap;html=1;" vertex="1" parent="bOV27ZRf-qqVnHiNed2t-1">
          <mxGeometry y="60" width="380" height="26" as="geometry" />
        </mxCell>
        <mxCell id="bOV27ZRf-qqVnHiNed2t-47" value="+ GetIngredient(id : int) : IActionResult" style="text;strokeColor=none;fillColor=none;align=left;verticalAlign=top;spacingLeft=4;spacingRight=4;overflow=hidden;rotatable=0;points=[[0,0.5],[1,0.5]];portConstraint=eastwest;whiteSpace=wrap;html=1;" vertex="1" parent="bOV27ZRf-qqVnHiNed2t-1">
          <mxGeometry y="86" width="380" height="26" as="geometry" />
        </mxCell>
        <mxCell id="bOV27ZRf-qqVnHiNed2t-48" value="+ CreateIngredient(ingredient : Ingredient) : IActionResult" style="text;strokeColor=none;fillColor=none;align=left;verticalAlign=top;spacingLeft=4;spacingRight=4;overflow=hidden;rotatable=0;points=[[0,0.5],[1,0.5]];portConstraint=eastwest;whiteSpace=wrap;html=1;" vertex="1" parent="bOV27ZRf-qqVnHiNed2t-1">
          <mxGeometry y="112" width="380" height="26" as="geometry" />
        </mxCell>
        <mxCell id="bOV27ZRf-qqVnHiNed2t-49" value="+ UpdateIngredient(ingredient : Ingredient) : IActionResult" style="text;strokeColor=none;fillColor=none;align=left;verticalAlign=top;spacingLeft=4;spacingRight=4;overflow=hidden;rotatable=0;points=[[0,0.5],[1,0.5]];portConstraint=eastwest;whiteSpace=wrap;html=1;" vertex="1" parent="bOV27ZRf-qqVnHiNed2t-1">
          <mxGeometry y="138" width="380" height="26" as="geometry" />
        </mxCell>
        <mxCell id="bOV27ZRf-qqVnHiNed2t-5" value="RecipeController" style="swimlane;fontStyle=1;align=center;verticalAlign=top;childLayout=stackLayout;horizontal=1;startSize=26;horizontalStack=0;resizeParent=1;resizeParentMax=0;resizeLast=0;collapsible=1;marginBottom=0;whiteSpace=wrap;html=1;" vertex="1" parent="1">
          <mxGeometry x="789" y="600" width="380" height="190" as="geometry" />
        </mxCell>
        <mxCell id="bOV27ZRf-qqVnHiNed2t-17" value="- database : Database" style="text;strokeColor=none;fillColor=none;align=left;verticalAlign=top;spacingLeft=4;spacingRight=4;overflow=hidden;rotatable=0;points=[[0,0.5],[1,0.5]];portConstraint=eastwest;whiteSpace=wrap;html=1;" vertex="1" parent="bOV27ZRf-qqVnHiNed2t-5">
          <mxGeometry y="26" width="380" height="26" as="geometry" />
        </mxCell>
        <mxCell id="bOV27ZRf-qqVnHiNed2t-7" value="" style="line;strokeWidth=1;fillColor=none;align=left;verticalAlign=middle;spacingTop=-1;spacingLeft=3;spacingRight=3;rotatable=0;labelPosition=right;points=[];portConstraint=eastwest;strokeColor=inherit;" vertex="1" parent="bOV27ZRf-qqVnHiNed2t-5">
          <mxGeometry y="52" width="380" height="8" as="geometry" />
        </mxCell>
        <mxCell id="bOV27ZRf-qqVnHiNed2t-8" value="+ GetRecipes() : IActionResult" style="text;strokeColor=none;fillColor=none;align=left;verticalAlign=top;spacingLeft=4;spacingRight=4;overflow=hidden;rotatable=0;points=[[0,0.5],[1,0.5]];portConstraint=eastwest;whiteSpace=wrap;html=1;" vertex="1" parent="bOV27ZRf-qqVnHiNed2t-5">
          <mxGeometry y="60" width="380" height="26" as="geometry" />
        </mxCell>
        <mxCell id="bOV27ZRf-qqVnHiNed2t-56" value="+ GetRecipe(id : int) : IActionResult" style="text;strokeColor=none;fillColor=none;align=left;verticalAlign=top;spacingLeft=4;spacingRight=4;overflow=hidden;rotatable=0;points=[[0,0.5],[1,0.5]];portConstraint=eastwest;whiteSpace=wrap;html=1;" vertex="1" parent="bOV27ZRf-qqVnHiNed2t-5">
          <mxGeometry y="86" width="380" height="26" as="geometry" />
        </mxCell>
        <mxCell id="bOV27ZRf-qqVnHiNed2t-57" value="+ CreateRecipe(recipe : Recipe) : IActionResult" style="text;strokeColor=none;fillColor=none;align=left;verticalAlign=top;spacingLeft=4;spacingRight=4;overflow=hidden;rotatable=0;points=[[0,0.5],[1,0.5]];portConstraint=eastwest;whiteSpace=wrap;html=1;" vertex="1" parent="bOV27ZRf-qqVnHiNed2t-5">
          <mxGeometry y="112" width="380" height="26" as="geometry" />
        </mxCell>
        <mxCell id="bOV27ZRf-qqVnHiNed2t-58" value="+ UpdateRecipe(recipe : Recipe) : IActionResult" style="text;strokeColor=none;fillColor=none;align=left;verticalAlign=top;spacingLeft=4;spacingRight=4;overflow=hidden;rotatable=0;points=[[0,0.5],[1,0.5]];portConstraint=eastwest;whiteSpace=wrap;html=1;" vertex="1" parent="bOV27ZRf-qqVnHiNed2t-5">
          <mxGeometry y="138" width="380" height="26" as="geometry" />
        </mxCell>
        <mxCell id="bOV27ZRf-qqVnHiNed2t-59" value="+ DeleteRecipe(id : int) : IActionResult" style="text;strokeColor=none;fillColor=none;align=left;verticalAlign=top;spacingLeft=4;spacingRight=4;overflow=hidden;rotatable=0;points=[[0,0.5],[1,0.5]];portConstraint=eastwest;whiteSpace=wrap;html=1;" vertex="1" parent="bOV27ZRf-qqVnHiNed2t-5">
          <mxGeometry y="164" width="380" height="26" as="geometry" />
        </mxCell>
        <mxCell id="bOV27ZRf-qqVnHiNed2t-9" value="User&lt;span style=&quot;background-color: transparent; color: light-dark(rgb(0, 0, 0), rgb(255, 255, 255));&quot;&gt;Controller&lt;/span&gt;" style="swimlane;fontStyle=1;align=center;verticalAlign=top;childLayout=stackLayout;horizontal=1;startSize=26;horizontalStack=0;resizeParent=1;resizeParentMax=0;resizeLast=0;collapsible=1;marginBottom=0;whiteSpace=wrap;html=1;" vertex="1" parent="1">
          <mxGeometry x="789" y="450" width="380" height="138" as="geometry" />
        </mxCell>
        <mxCell id="bOV27ZRf-qqVnHiNed2t-18" value="- database : Database" style="text;strokeColor=none;fillColor=none;align=left;verticalAlign=top;spacingLeft=4;spacingRight=4;overflow=hidden;rotatable=0;points=[[0,0.5],[1,0.5]];portConstraint=eastwest;whiteSpace=wrap;html=1;" vertex="1" parent="bOV27ZRf-qqVnHiNed2t-9">
          <mxGeometry y="26" width="380" height="26" as="geometry" />
        </mxCell>
        <mxCell id="bOV27ZRf-qqVnHiNed2t-11" value="" style="line;strokeWidth=1;fillColor=none;align=left;verticalAlign=middle;spacingTop=-1;spacingLeft=3;spacingRight=3;rotatable=0;labelPosition=right;points=[];portConstraint=eastwest;strokeColor=inherit;" vertex="1" parent="bOV27ZRf-qqVnHiNed2t-9">
          <mxGeometry y="52" width="380" height="8" as="geometry" />
        </mxCell>
        <mxCell id="bOV27ZRf-qqVnHiNed2t-12" value="+ GetUser(id : int) : IActionResult" style="text;strokeColor=none;fillColor=none;align=left;verticalAlign=top;spacingLeft=4;spacingRight=4;overflow=hidden;rotatable=0;points=[[0,0.5],[1,0.5]];portConstraint=eastwest;whiteSpace=wrap;html=1;" vertex="1" parent="bOV27ZRf-qqVnHiNed2t-9">
          <mxGeometry y="60" width="380" height="26" as="geometry" />
        </mxCell>
        <mxCell id="bOV27ZRf-qqVnHiNed2t-54" value="+ Login(request : MyLoginRequest) : IActionResult" style="text;strokeColor=none;fillColor=none;align=left;verticalAlign=top;spacingLeft=4;spacingRight=4;overflow=hidden;rotatable=0;points=[[0,0.5],[1,0.5]];portConstraint=eastwest;whiteSpace=wrap;html=1;" vertex="1" parent="bOV27ZRf-qqVnHiNed2t-9">
          <mxGeometry y="86" width="380" height="26" as="geometry" />
        </mxCell>
        <mxCell id="bOV27ZRf-qqVnHiNed2t-55" value="+ Register(request : MyRegisterRequest) : IActionResult" style="text;strokeColor=none;fillColor=none;align=left;verticalAlign=top;spacingLeft=4;spacingRight=4;overflow=hidden;rotatable=0;points=[[0,0.5],[1,0.5]];portConstraint=eastwest;whiteSpace=wrap;html=1;" vertex="1" parent="bOV27ZRf-qqVnHiNed2t-9">
          <mxGeometry y="112" width="380" height="26" as="geometry" />
        </mxCell>
        <mxCell id="bOV27ZRf-qqVnHiNed2t-13" value="UtensilController" style="swimlane;fontStyle=1;align=center;verticalAlign=top;childLayout=stackLayout;horizontal=1;startSize=26;horizontalStack=0;resizeParent=1;resizeParentMax=0;resizeLast=0;collapsible=1;marginBottom=0;whiteSpace=wrap;html=1;" vertex="1" parent="1">
          <mxGeometry x="789" y="270" width="380" height="164" as="geometry" />
        </mxCell>
        <mxCell id="bOV27ZRf-qqVnHiNed2t-19" value="- database : Database" style="text;strokeColor=none;fillColor=none;align=left;verticalAlign=top;spacingLeft=4;spacingRight=4;overflow=hidden;rotatable=0;points=[[0,0.5],[1,0.5]];portConstraint=eastwest;whiteSpace=wrap;html=1;" vertex="1" parent="bOV27ZRf-qqVnHiNed2t-13">
          <mxGeometry y="26" width="380" height="26" as="geometry" />
        </mxCell>
        <mxCell id="bOV27ZRf-qqVnHiNed2t-15" value="" style="line;strokeWidth=1;fillColor=none;align=left;verticalAlign=middle;spacingTop=-1;spacingLeft=3;spacingRight=3;rotatable=0;labelPosition=right;points=[];portConstraint=eastwest;strokeColor=inherit;" vertex="1" parent="bOV27ZRf-qqVnHiNed2t-13">
          <mxGeometry y="52" width="380" height="8" as="geometry" />
        </mxCell>
        <mxCell id="bOV27ZRf-qqVnHiNed2t-16" value="+ GetUtensils() : IActionResult" style="text;strokeColor=none;fillColor=none;align=left;verticalAlign=top;spacingLeft=4;spacingRight=4;overflow=hidden;rotatable=0;points=[[0,0.5],[1,0.5]];portConstraint=eastwest;whiteSpace=wrap;html=1;" vertex="1" parent="bOV27ZRf-qqVnHiNed2t-13">
          <mxGeometry y="60" width="380" height="26" as="geometry" />
        </mxCell>
        <mxCell id="bOV27ZRf-qqVnHiNed2t-51" value="+ GetUtensil(id : int) : IActionResult" style="text;strokeColor=none;fillColor=none;align=left;verticalAlign=top;spacingLeft=4;spacingRight=4;overflow=hidden;rotatable=0;points=[[0,0.5],[1,0.5]];portConstraint=eastwest;whiteSpace=wrap;html=1;" vertex="1" parent="bOV27ZRf-qqVnHiNed2t-13">
          <mxGeometry y="86" width="380" height="26" as="geometry" />
        </mxCell>
        <mxCell id="bOV27ZRf-qqVnHiNed2t-52" value="+ CreateUtensil(utensil : Utensil) : IActionResult" style="text;strokeColor=none;fillColor=none;align=left;verticalAlign=top;spacingLeft=4;spacingRight=4;overflow=hidden;rotatable=0;points=[[0,0.5],[1,0.5]];portConstraint=eastwest;whiteSpace=wrap;html=1;" vertex="1" parent="bOV27ZRf-qqVnHiNed2t-13">
          <mxGeometry y="112" width="380" height="26" as="geometry" />
        </mxCell>
        <mxCell id="bOV27ZRf-qqVnHiNed2t-53" value="+ UpdateUtensil(utensil : Utensil) : IActionResult" style="text;strokeColor=none;fillColor=none;align=left;verticalAlign=top;spacingLeft=4;spacingRight=4;overflow=hidden;rotatable=0;points=[[0,0.5],[1,0.5]];portConstraint=eastwest;whiteSpace=wrap;html=1;" vertex="1" parent="bOV27ZRf-qqVnHiNed2t-13">
          <mxGeometry y="138" width="380" height="26" as="geometry" />
        </mxCell>
        <mxCell id="bOV27ZRf-qqVnHiNed2t-20" value="Database" style="swimlane;fontStyle=1;align=center;verticalAlign=top;childLayout=stackLayout;horizontal=1;startSize=26;horizontalStack=0;resizeParent=1;resizeParentMax=0;resizeLast=0;collapsible=1;marginBottom=0;whiteSpace=wrap;html=1;" vertex="1" parent="1">
          <mxGeometry x="110" y="90" width="490" height="684" as="geometry" />
        </mxCell>
        <mxCell id="bOV27ZRf-qqVnHiNed2t-21" value="- connection : MySqlConnection" style="text;strokeColor=none;fillColor=none;align=left;verticalAlign=top;spacingLeft=4;spacingRight=4;overflow=hidden;rotatable=0;points=[[0,0.5],[1,0.5]];portConstraint=eastwest;whiteSpace=wrap;html=1;" vertex="1" parent="bOV27ZRf-qqVnHiNed2t-20">
          <mxGeometry y="26" width="490" height="26" as="geometry" />
        </mxCell>
        <mxCell id="bOV27ZRf-qqVnHiNed2t-22" value="" style="line;strokeWidth=1;fillColor=none;align=left;verticalAlign=middle;spacingTop=-1;spacingLeft=3;spacingRight=3;rotatable=0;labelPosition=right;points=[];portConstraint=eastwest;strokeColor=inherit;" vertex="1" parent="bOV27ZRf-qqVnHiNed2t-20">
          <mxGeometry y="52" width="490" height="8" as="geometry" />
        </mxCell>
        <mxCell id="bOV27ZRf-qqVnHiNed2t-23" value="+ Database(connectionString : string)" style="text;strokeColor=none;fillColor=none;align=left;verticalAlign=top;spacingLeft=4;spacingRight=4;overflow=hidden;rotatable=0;points=[[0,0.5],[1,0.5]];portConstraint=eastwest;whiteSpace=wrap;html=1;" vertex="1" parent="bOV27ZRf-qqVnHiNed2t-20">
          <mxGeometry y="60" width="490" height="26" as="geometry" />
        </mxCell>
        <mxCell id="bOV27ZRf-qqVnHiNed2t-26" value="+ Login(username : string, password : string) : User&amp;nbsp;{nullable}" style="text;strokeColor=none;fillColor=none;align=left;verticalAlign=top;spacingLeft=4;spacingRight=4;overflow=hidden;rotatable=0;points=[[0,0.5],[1,0.5]];portConstraint=eastwest;whiteSpace=wrap;html=1;" vertex="1" parent="bOV27ZRf-qqVnHiNed2t-20">
          <mxGeometry y="86" width="490" height="26" as="geometry" />
        </mxCell>
        <mxCell id="bOV27ZRf-qqVnHiNed2t-28" value="+ Register(username : string, email : string, password : string) : User&amp;nbsp;{nullable}" style="text;strokeColor=none;fillColor=none;align=left;verticalAlign=top;spacingLeft=4;spacingRight=4;overflow=hidden;rotatable=0;points=[[0,0.5],[1,0.5]];portConstraint=eastwest;whiteSpace=wrap;html=1;" vertex="1" parent="bOV27ZRf-qqVnHiNed2t-20">
          <mxGeometry y="112" width="490" height="26" as="geometry" />
        </mxCell>
        <mxCell id="bOV27ZRf-qqVnHiNed2t-30" value="+ GetUserByID(id : int) : User&amp;nbsp;{nullable}" style="text;strokeColor=none;fillColor=none;align=left;verticalAlign=top;spacingLeft=4;spacingRight=4;overflow=hidden;rotatable=0;points=[[0,0.5],[1,0.5]];portConstraint=eastwest;whiteSpace=wrap;html=1;" vertex="1" parent="bOV27ZRf-qqVnHiNed2t-20">
          <mxGeometry y="138" width="490" height="26" as="geometry" />
        </mxCell>
        <mxCell id="bOV27ZRf-qqVnHiNed2t-31" value="+ GetAchievments(username : string) : Achievment[0..*]" style="text;strokeColor=none;fillColor=none;align=left;verticalAlign=top;spacingLeft=4;spacingRight=4;overflow=hidden;rotatable=0;points=[[0,0.5],[1,0.5]];portConstraint=eastwest;whiteSpace=wrap;html=1;" vertex="1" parent="bOV27ZRf-qqVnHiNed2t-20">
          <mxGeometry y="164" width="490" height="26" as="geometry" />
        </mxCell>
        <mxCell id="bOV27ZRf-qqVnHiNed2t-24" value="+ GetRecipeByID(id : int) : Recipe&amp;nbsp;{nullable}" style="text;strokeColor=none;fillColor=none;align=left;verticalAlign=top;spacingLeft=4;spacingRight=4;overflow=hidden;rotatable=0;points=[[0,0.5],[1,0.5]];portConstraint=eastwest;whiteSpace=wrap;html=1;" vertex="1" parent="bOV27ZRf-qqVnHiNed2t-20">
          <mxGeometry y="190" width="490" height="26" as="geometry" />
        </mxCell>
        <mxCell id="bOV27ZRf-qqVnHiNed2t-25" value="+ GetAllRecipes() : Recipe[0..*]" style="text;strokeColor=none;fillColor=none;align=left;verticalAlign=top;spacingLeft=4;spacingRight=4;overflow=hidden;rotatable=0;points=[[0,0.5],[1,0.5]];portConstraint=eastwest;whiteSpace=wrap;html=1;" vertex="1" parent="bOV27ZRf-qqVnHiNed2t-20">
          <mxGeometry y="216" width="490" height="26" as="geometry" />
        </mxCell>
        <mxCell id="bOV27ZRf-qqVnHiNed2t-32" value="+ CreateRecipe(recipe : Recipe) : Recipe&amp;nbsp;{nullable}" style="text;strokeColor=none;fillColor=none;align=left;verticalAlign=top;spacingLeft=4;spacingRight=4;overflow=hidden;rotatable=0;points=[[0,0.5],[1,0.5]];portConstraint=eastwest;whiteSpace=wrap;html=1;" vertex="1" parent="bOV27ZRf-qqVnHiNed2t-20">
          <mxGeometry y="242" width="490" height="26" as="geometry" />
        </mxCell>
        <mxCell id="bOV27ZRf-qqVnHiNed2t-29" value="+ DeleteRecipe(id : int) : boolean" style="text;strokeColor=none;fillColor=none;align=left;verticalAlign=top;spacingLeft=4;spacingRight=4;overflow=hidden;rotatable=0;points=[[0,0.5],[1,0.5]];portConstraint=eastwest;whiteSpace=wrap;html=1;" vertex="1" parent="bOV27ZRf-qqVnHiNed2t-20">
          <mxGeometry y="268" width="490" height="26" as="geometry" />
        </mxCell>
        <mxCell id="bOV27ZRf-qqVnHiNed2t-27" value="+ UpdateRecipe(recipe : Recipe) : Recipe&amp;nbsp;{nullable}" style="text;strokeColor=none;fillColor=none;align=left;verticalAlign=top;spacingLeft=4;spacingRight=4;overflow=hidden;rotatable=0;points=[[0,0.5],[1,0.5]];portConstraint=eastwest;whiteSpace=wrap;html=1;" vertex="1" parent="bOV27ZRf-qqVnHiNed2t-20">
          <mxGeometry y="294" width="490" height="26" as="geometry" />
        </mxCell>
        <mxCell id="bOV27ZRf-qqVnHiNed2t-33" value="+ GetUtensilByID(id : int) : Utensil&amp;nbsp;{nullable}" style="text;strokeColor=none;fillColor=none;align=left;verticalAlign=top;spacingLeft=4;spacingRight=4;overflow=hidden;rotatable=0;points=[[0,0.5],[1,0.5]];portConstraint=eastwest;whiteSpace=wrap;html=1;" vertex="1" parent="bOV27ZRf-qqVnHiNed2t-20">
          <mxGeometry y="320" width="490" height="26" as="geometry" />
        </mxCell>
        <mxCell id="bOV27ZRf-qqVnHiNed2t-34" value="+ GetAllUtensils() : Utensil[0..*]" style="text;strokeColor=none;fillColor=none;align=left;verticalAlign=top;spacingLeft=4;spacingRight=4;overflow=hidden;rotatable=0;points=[[0,0.5],[1,0.5]];portConstraint=eastwest;whiteSpace=wrap;html=1;" vertex="1" parent="bOV27ZRf-qqVnHiNed2t-20">
          <mxGeometry y="346" width="490" height="26" as="geometry" />
        </mxCell>
        <mxCell id="bOV27ZRf-qqVnHiNed2t-35" value="+ CreateUtensil(utensil : Utensil) : Utensil&amp;nbsp;{nullable}" style="text;strokeColor=none;fillColor=none;align=left;verticalAlign=top;spacingLeft=4;spacingRight=4;overflow=hidden;rotatable=0;points=[[0,0.5],[1,0.5]];portConstraint=eastwest;whiteSpace=wrap;html=1;" vertex="1" parent="bOV27ZRf-qqVnHiNed2t-20">
          <mxGeometry y="372" width="490" height="26" as="geometry" />
        </mxCell>
        <mxCell id="bOV27ZRf-qqVnHiNed2t-36" value="+ UpdateUtensil(utensil : Utensil) : Utensil&amp;nbsp;{nullable}" style="text;strokeColor=none;fillColor=none;align=left;verticalAlign=top;spacingLeft=4;spacingRight=4;overflow=hidden;rotatable=0;points=[[0,0.5],[1,0.5]];portConstraint=eastwest;whiteSpace=wrap;html=1;" vertex="1" parent="bOV27ZRf-qqVnHiNed2t-20">
          <mxGeometry y="398" width="490" height="26" as="geometry" />
        </mxCell>
        <mxCell id="bOV27ZRf-qqVnHiNed2t-37" value="+ DeleteUtensil(id : int) : boolean" style="text;strokeColor=none;fillColor=none;align=left;verticalAlign=top;spacingLeft=4;spacingRight=4;overflow=hidden;rotatable=0;points=[[0,0.5],[1,0.5]];portConstraint=eastwest;whiteSpace=wrap;html=1;" vertex="1" parent="bOV27ZRf-qqVnHiNed2t-20">
          <mxGeometry y="424" width="490" height="26" as="geometry" />
        </mxCell>
        <mxCell id="bOV27ZRf-qqVnHiNed2t-38" value="+ GetIngredientByID(id : int) : Utensil&amp;nbsp;{nullable}" style="text;strokeColor=none;fillColor=none;align=left;verticalAlign=top;spacingLeft=4;spacingRight=4;overflow=hidden;rotatable=0;points=[[0,0.5],[1,0.5]];portConstraint=eastwest;whiteSpace=wrap;html=1;" vertex="1" parent="bOV27ZRf-qqVnHiNed2t-20">
          <mxGeometry y="450" width="490" height="26" as="geometry" />
        </mxCell>
        <mxCell id="bOV27ZRf-qqVnHiNed2t-39" value="+ GetAllIngredients() : Ingredient[0..*]" style="text;strokeColor=none;fillColor=none;align=left;verticalAlign=top;spacingLeft=4;spacingRight=4;overflow=hidden;rotatable=0;points=[[0,0.5],[1,0.5]];portConstraint=eastwest;whiteSpace=wrap;html=1;" vertex="1" parent="bOV27ZRf-qqVnHiNed2t-20">
          <mxGeometry y="476" width="490" height="26" as="geometry" />
        </mxCell>
        <mxCell id="bOV27ZRf-qqVnHiNed2t-40" value="+ CreateIngredient(ingredient : Ingredient) : Ingredient&amp;nbsp;{nullable}" style="text;strokeColor=none;fillColor=none;align=left;verticalAlign=top;spacingLeft=4;spacingRight=4;overflow=hidden;rotatable=0;points=[[0,0.5],[1,0.5]];portConstraint=eastwest;whiteSpace=wrap;html=1;" vertex="1" parent="bOV27ZRf-qqVnHiNed2t-20">
          <mxGeometry y="502" width="490" height="26" as="geometry" />
        </mxCell>
        <mxCell id="bOV27ZRf-qqVnHiNed2t-41" value="+ UpdateIngredient(ingredient Ingredient) : Ingredient&amp;nbsp;{nullable}" style="text;strokeColor=none;fillColor=none;align=left;verticalAlign=top;spacingLeft=4;spacingRight=4;overflow=hidden;rotatable=0;points=[[0,0.5],[1,0.5]];portConstraint=eastwest;whiteSpace=wrap;html=1;" vertex="1" parent="bOV27ZRf-qqVnHiNed2t-20">
          <mxGeometry y="528" width="490" height="26" as="geometry" />
        </mxCell>
        <mxCell id="bOV27ZRf-qqVnHiNed2t-42" value="+ DeleteIngredient(id int) : boolean" style="text;strokeColor=none;fillColor=none;align=left;verticalAlign=top;spacingLeft=4;spacingRight=4;overflow=hidden;rotatable=0;points=[[0,0.5],[1,0.5]];portConstraint=eastwest;whiteSpace=wrap;html=1;" vertex="1" parent="bOV27ZRf-qqVnHiNed2t-20">
          <mxGeometry y="554" width="490" height="26" as="geometry" />
        </mxCell>
        <mxCell id="bOV27ZRf-qqVnHiNed2t-43" value="+ GetDifficulty() : Difficulty[0..*]" style="text;strokeColor=none;fillColor=none;align=left;verticalAlign=top;spacingLeft=4;spacingRight=4;overflow=hidden;rotatable=0;points=[[0,0.5],[1,0.5]];portConstraint=eastwest;whiteSpace=wrap;html=1;" vertex="1" parent="bOV27ZRf-qqVnHiNed2t-20">
          <mxGeometry y="580" width="490" height="26" as="geometry" />
        </mxCell>
        <mxCell id="bOV27ZRf-qqVnHiNed2t-44" value="+ GetCategory() : Category[0..*]" style="text;strokeColor=none;fillColor=none;align=left;verticalAlign=top;spacingLeft=4;spacingRight=4;overflow=hidden;rotatable=0;points=[[0,0.5],[1,0.5]];portConstraint=eastwest;whiteSpace=wrap;html=1;" vertex="1" parent="bOV27ZRf-qqVnHiNed2t-20">
          <mxGeometry y="606" width="490" height="26" as="geometry" />
        </mxCell>
        <mxCell id="bOV27ZRf-qqVnHiNed2t-45" value="- ExecuteQuery(sql : string) : MySqlDataReader" style="text;strokeColor=none;fillColor=none;align=left;verticalAlign=top;spacingLeft=4;spacingRight=4;overflow=hidden;rotatable=0;points=[[0,0.5],[1,0.5]];portConstraint=eastwest;whiteSpace=wrap;html=1;" vertex="1" parent="bOV27ZRf-qqVnHiNed2t-20">
          <mxGeometry y="632" width="490" height="26" as="geometry" />
        </mxCell>
        <mxCell id="bOV27ZRf-qqVnHiNed2t-46" value="- GetLastInsertedID() : integer" style="text;strokeColor=none;fillColor=none;align=left;verticalAlign=top;spacingLeft=4;spacingRight=4;overflow=hidden;rotatable=0;points=[[0,0.5],[1,0.5]];portConstraint=eastwest;whiteSpace=wrap;html=1;" vertex="1" parent="bOV27ZRf-qqVnHiNed2t-20">
          <mxGeometry y="658" width="490" height="26" as="geometry" />
        </mxCell>
        <mxCell id="bOV27ZRf-qqVnHiNed2t-62" value="" style="endArrow=none;html=1;edgeStyle=orthogonalEdgeStyle;rounded=0;exitX=1;exitY=0.5;exitDx=0;exitDy=0;entryX=0;entryY=0.5;entryDx=0;entryDy=0;" edge="1" parent="1" source="bOV27ZRf-qqVnHiNed2t-21" target="bOV27ZRf-qqVnHiNed2t-2">
          <mxGeometry relative="1" as="geometry">
            <mxPoint x="550" y="460" as="sourcePoint" />
            <mxPoint x="710" y="460" as="targetPoint" />
          </mxGeometry>
        </mxCell>
        <mxCell id="bOV27ZRf-qqVnHiNed2t-63" value="0..4" style="edgeLabel;resizable=0;html=1;align=left;verticalAlign=bottom;" connectable="0" vertex="1" parent="bOV27ZRf-qqVnHiNed2t-62">
          <mxGeometry x="-1" relative="1" as="geometry">
            <mxPoint x="10" as="offset" />
          </mxGeometry>
        </mxCell>
        <mxCell id="bOV27ZRf-qqVnHiNed2t-64" value="1" style="edgeLabel;resizable=0;html=1;align=right;verticalAlign=bottom;" connectable="0" vertex="1" parent="bOV27ZRf-qqVnHiNed2t-62">
          <mxGeometry x="1" relative="1" as="geometry">
            <mxPoint x="-9" as="offset" />
          </mxGeometry>
        </mxCell>
        <mxCell id="bOV27ZRf-qqVnHiNed2t-65" value="" style="endArrow=none;html=1;edgeStyle=orthogonalEdgeStyle;rounded=0;exitX=1;exitY=0.5;exitDx=0;exitDy=0;entryX=0;entryY=0.5;entryDx=0;entryDy=0;" edge="1" parent="1" source="bOV27ZRf-qqVnHiNed2t-21" target="bOV27ZRf-qqVnHiNed2t-19">
          <mxGeometry relative="1" as="geometry">
            <mxPoint x="500" y="270" as="sourcePoint" />
            <mxPoint x="799" y="270" as="targetPoint" />
          </mxGeometry>
        </mxCell>
        <mxCell id="bOV27ZRf-qqVnHiNed2t-67" value="1" style="edgeLabel;resizable=0;html=1;align=right;verticalAlign=bottom;" connectable="0" vertex="1" parent="bOV27ZRf-qqVnHiNed2t-65">
          <mxGeometry x="1" relative="1" as="geometry">
            <mxPoint x="-9" as="offset" />
          </mxGeometry>
        </mxCell>
        <mxCell id="bOV27ZRf-qqVnHiNed2t-68" value="" style="endArrow=none;html=1;edgeStyle=orthogonalEdgeStyle;rounded=0;exitX=1;exitY=0.5;exitDx=0;exitDy=0;entryX=0;entryY=0.5;entryDx=0;entryDy=0;" edge="1" parent="1" source="bOV27ZRf-qqVnHiNed2t-21" target="bOV27ZRf-qqVnHiNed2t-18">
          <mxGeometry relative="1" as="geometry">
            <mxPoint x="435" y="400" as="sourcePoint" />
            <mxPoint x="734" y="580" as="targetPoint" />
          </mxGeometry>
        </mxCell>
        <mxCell id="bOV27ZRf-qqVnHiNed2t-69" value="1" style="edgeLabel;resizable=0;html=1;align=right;verticalAlign=bottom;" connectable="0" vertex="1" parent="bOV27ZRf-qqVnHiNed2t-68">
          <mxGeometry x="1" relative="1" as="geometry">
            <mxPoint x="-9" y="-1" as="offset" />
          </mxGeometry>
        </mxCell>
        <mxCell id="bOV27ZRf-qqVnHiNed2t-70" value="" style="endArrow=none;html=1;edgeStyle=orthogonalEdgeStyle;rounded=0;exitX=1;exitY=0.5;exitDx=0;exitDy=0;entryX=0;entryY=0.5;entryDx=0;entryDy=0;" edge="1" parent="1" source="bOV27ZRf-qqVnHiNed2t-21" target="bOV27ZRf-qqVnHiNed2t-17">
          <mxGeometry relative="1" as="geometry">
            <mxPoint x="510" y="149" as="sourcePoint" />
            <mxPoint x="809" y="329" as="targetPoint" />
          </mxGeometry>
        </mxCell>
        <mxCell id="bOV27ZRf-qqVnHiNed2t-71" value="1" style="edgeLabel;resizable=0;html=1;align=right;verticalAlign=bottom;" connectable="0" vertex="1" parent="bOV27ZRf-qqVnHiNed2t-70">
          <mxGeometry x="1" relative="1" as="geometry">
            <mxPoint x="-9" as="offset" />
          </mxGeometry>
        </mxCell>
        <mxCell id="bOV27ZRf-qqVnHiNed2t-72" value="Achievment" style="swimlane;fontStyle=1;align=center;verticalAlign=top;childLayout=stackLayout;horizontal=1;startSize=26;horizontalStack=0;resizeParent=1;resizeParentMax=0;resizeLast=0;collapsible=1;marginBottom=0;whiteSpace=wrap;html=1;" vertex="1" parent="1">
          <mxGeometry x="454" y="920" width="160" height="34" as="geometry" />
        </mxCell>
        <mxCell id="bOV27ZRf-qqVnHiNed2t-74" value="" style="line;strokeWidth=1;fillColor=none;align=left;verticalAlign=middle;spacingTop=-1;spacingLeft=3;spacingRight=3;rotatable=0;labelPosition=right;points=[];portConstraint=eastwest;strokeColor=inherit;" vertex="1" parent="bOV27ZRf-qqVnHiNed2t-72">
          <mxGeometry y="26" width="160" height="8" as="geometry" />
        </mxCell>
        <mxCell id="bOV27ZRf-qqVnHiNed2t-76" value="Category" style="swimlane;fontStyle=1;align=center;verticalAlign=top;childLayout=stackLayout;horizontal=1;startSize=26;horizontalStack=0;resizeParent=1;resizeParentMax=0;resizeLast=0;collapsible=1;marginBottom=0;whiteSpace=wrap;html=1;" vertex="1" parent="1">
          <mxGeometry x="290" y="920" width="160" height="86" as="geometry" />
        </mxCell>
        <mxCell id="bOV27ZRf-qqVnHiNed2t-77" value="+ ID : integer" style="text;strokeColor=none;fillColor=none;align=left;verticalAlign=top;spacingLeft=4;spacingRight=4;overflow=hidden;rotatable=0;points=[[0,0.5],[1,0.5]];portConstraint=eastwest;whiteSpace=wrap;html=1;" vertex="1" parent="bOV27ZRf-qqVnHiNed2t-76">
          <mxGeometry y="26" width="160" height="26" as="geometry" />
        </mxCell>
        <mxCell id="bOV27ZRf-qqVnHiNed2t-80" value="+ NAME : string" style="text;strokeColor=none;fillColor=none;align=left;verticalAlign=top;spacingLeft=4;spacingRight=4;overflow=hidden;rotatable=0;points=[[0,0.5],[1,0.5]];portConstraint=eastwest;whiteSpace=wrap;html=1;" vertex="1" parent="bOV27ZRf-qqVnHiNed2t-76">
          <mxGeometry y="52" width="160" height="26" as="geometry" />
        </mxCell>
        <mxCell id="bOV27ZRf-qqVnHiNed2t-78" value="" style="line;strokeWidth=1;fillColor=none;align=left;verticalAlign=middle;spacingTop=-1;spacingLeft=3;spacingRight=3;rotatable=0;labelPosition=right;points=[];portConstraint=eastwest;strokeColor=inherit;" vertex="1" parent="bOV27ZRf-qqVnHiNed2t-76">
          <mxGeometry y="78" width="160" height="8" as="geometry" />
        </mxCell>
        <mxCell id="bOV27ZRf-qqVnHiNed2t-81" value="Difficulty" style="swimlane;fontStyle=1;align=center;verticalAlign=top;childLayout=stackLayout;horizontal=1;startSize=26;horizontalStack=0;resizeParent=1;resizeParentMax=0;resizeLast=0;collapsible=1;marginBottom=0;whiteSpace=wrap;html=1;" vertex="1" parent="1">
          <mxGeometry x="120" y="920" width="160" height="86" as="geometry" />
        </mxCell>
        <mxCell id="bOV27ZRf-qqVnHiNed2t-82" value="+ ID : integer" style="text;strokeColor=none;fillColor=none;align=left;verticalAlign=top;spacingLeft=4;spacingRight=4;overflow=hidden;rotatable=0;points=[[0,0.5],[1,0.5]];portConstraint=eastwest;whiteSpace=wrap;html=1;" vertex="1" parent="bOV27ZRf-qqVnHiNed2t-81">
          <mxGeometry y="26" width="160" height="26" as="geometry" />
        </mxCell>
        <mxCell id="bOV27ZRf-qqVnHiNed2t-83" value="+ NAME : string" style="text;strokeColor=none;fillColor=none;align=left;verticalAlign=top;spacingLeft=4;spacingRight=4;overflow=hidden;rotatable=0;points=[[0,0.5],[1,0.5]];portConstraint=eastwest;whiteSpace=wrap;html=1;" vertex="1" parent="bOV27ZRf-qqVnHiNed2t-81">
          <mxGeometry y="52" width="160" height="26" as="geometry" />
        </mxCell>
        <mxCell id="bOV27ZRf-qqVnHiNed2t-84" value="" style="line;strokeWidth=1;fillColor=none;align=left;verticalAlign=middle;spacingTop=-1;spacingLeft=3;spacingRight=3;rotatable=0;labelPosition=right;points=[];portConstraint=eastwest;strokeColor=inherit;" vertex="1" parent="bOV27ZRf-qqVnHiNed2t-81">
          <mxGeometry y="78" width="160" height="8" as="geometry" />
        </mxCell>
        <mxCell id="bOV27ZRf-qqVnHiNed2t-85" value="Ingredient" style="swimlane;fontStyle=1;align=center;verticalAlign=top;childLayout=stackLayout;horizontal=1;startSize=26;horizontalStack=0;resizeParent=1;resizeParentMax=0;resizeLast=0;collapsible=1;marginBottom=0;whiteSpace=wrap;html=1;" vertex="1" parent="1">
          <mxGeometry x="1280" y="90" width="160" height="164" as="geometry" />
        </mxCell>
        <mxCell id="bOV27ZRf-qqVnHiNed2t-86" value="+ ID : int" style="text;strokeColor=none;fillColor=none;align=left;verticalAlign=top;spacingLeft=4;spacingRight=4;overflow=hidden;rotatable=0;points=[[0,0.5],[1,0.5]];portConstraint=eastwest;whiteSpace=wrap;html=1;" vertex="1" parent="bOV27ZRf-qqVnHiNed2t-85">
          <mxGeometry y="26" width="160" height="26" as="geometry" />
        </mxCell>
        <mxCell id="bOV27ZRf-qqVnHiNed2t-87" value="+ NAME : string" style="text;strokeColor=none;fillColor=none;align=left;verticalAlign=top;spacingLeft=4;spacingRight=4;overflow=hidden;rotatable=0;points=[[0,0.5],[1,0.5]];portConstraint=eastwest;whiteSpace=wrap;html=1;" vertex="1" parent="bOV27ZRf-qqVnHiNed2t-85">
          <mxGeometry y="52" width="160" height="26" as="geometry" />
        </mxCell>
        <mxCell id="bOV27ZRf-qqVnHiNed2t-89" value="+ CATEGORY : integer" style="text;strokeColor=none;fillColor=none;align=left;verticalAlign=top;spacingLeft=4;spacingRight=4;overflow=hidden;rotatable=0;points=[[0,0.5],[1,0.5]];portConstraint=eastwest;whiteSpace=wrap;html=1;" vertex="1" parent="bOV27ZRf-qqVnHiNed2t-85">
          <mxGeometry y="78" width="160" height="26" as="geometry" />
        </mxCell>
        <mxCell id="bOV27ZRf-qqVnHiNed2t-90" value="+ QUANTITY : float" style="text;strokeColor=none;fillColor=none;align=left;verticalAlign=top;spacingLeft=4;spacingRight=4;overflow=hidden;rotatable=0;points=[[0,0.5],[1,0.5]];portConstraint=eastwest;whiteSpace=wrap;html=1;" vertex="1" parent="bOV27ZRf-qqVnHiNed2t-85">
          <mxGeometry y="104" width="160" height="26" as="geometry" />
        </mxCell>
        <mxCell id="bOV27ZRf-qqVnHiNed2t-91" value="+ IMAGE : string" style="text;strokeColor=none;fillColor=none;align=left;verticalAlign=top;spacingLeft=4;spacingRight=4;overflow=hidden;rotatable=0;points=[[0,0.5],[1,0.5]];portConstraint=eastwest;whiteSpace=wrap;html=1;" vertex="1" parent="bOV27ZRf-qqVnHiNed2t-85">
          <mxGeometry y="130" width="160" height="26" as="geometry" />
        </mxCell>
        <mxCell id="bOV27ZRf-qqVnHiNed2t-88" value="" style="line;strokeWidth=1;fillColor=none;align=left;verticalAlign=middle;spacingTop=-1;spacingLeft=3;spacingRight=3;rotatable=0;labelPosition=right;points=[];portConstraint=eastwest;strokeColor=inherit;" vertex="1" parent="bOV27ZRf-qqVnHiNed2t-85">
          <mxGeometry y="156" width="160" height="8" as="geometry" />
        </mxCell>
        <mxCell id="bOV27ZRf-qqVnHiNed2t-92" value="MyLoginRequest" style="swimlane;fontStyle=1;align=center;verticalAlign=top;childLayout=stackLayout;horizontal=1;startSize=26;horizontalStack=0;resizeParent=1;resizeParentMax=0;resizeLast=0;collapsible=1;marginBottom=0;whiteSpace=wrap;html=1;" vertex="1" parent="1">
          <mxGeometry x="1280" y="584" width="160" height="86" as="geometry" />
        </mxCell>
        <mxCell id="bOV27ZRf-qqVnHiNed2t-93" value="+ Username : string" style="text;strokeColor=none;fillColor=none;align=left;verticalAlign=top;spacingLeft=4;spacingRight=4;overflow=hidden;rotatable=0;points=[[0,0.5],[1,0.5]];portConstraint=eastwest;whiteSpace=wrap;html=1;" vertex="1" parent="bOV27ZRf-qqVnHiNed2t-92">
          <mxGeometry y="26" width="160" height="26" as="geometry" />
        </mxCell>
        <mxCell id="bOV27ZRf-qqVnHiNed2t-94" value="+ Password : string" style="text;strokeColor=none;fillColor=none;align=left;verticalAlign=top;spacingLeft=4;spacingRight=4;overflow=hidden;rotatable=0;points=[[0,0.5],[1,0.5]];portConstraint=eastwest;whiteSpace=wrap;html=1;" vertex="1" parent="bOV27ZRf-qqVnHiNed2t-92">
          <mxGeometry y="52" width="160" height="26" as="geometry" />
        </mxCell>
        <mxCell id="bOV27ZRf-qqVnHiNed2t-95" value="" style="line;strokeWidth=1;fillColor=none;align=left;verticalAlign=middle;spacingTop=-1;spacingLeft=3;spacingRight=3;rotatable=0;labelPosition=right;points=[];portConstraint=eastwest;strokeColor=inherit;" vertex="1" parent="bOV27ZRf-qqVnHiNed2t-92">
          <mxGeometry y="78" width="160" height="8" as="geometry" />
        </mxCell>
        <mxCell id="bOV27ZRf-qqVnHiNed2t-96" value="MyRegisterRequest" style="swimlane;fontStyle=1;align=center;verticalAlign=top;childLayout=stackLayout;horizontal=1;startSize=26;horizontalStack=0;resizeParent=1;resizeParentMax=0;resizeLast=0;collapsible=1;marginBottom=0;whiteSpace=wrap;html=1;" vertex="1" parent="1">
          <mxGeometry x="1280" y="684" width="160" height="112" as="geometry" />
        </mxCell>
        <mxCell id="bOV27ZRf-qqVnHiNed2t-97" value="+ Username : string" style="text;strokeColor=none;fillColor=none;align=left;verticalAlign=top;spacingLeft=4;spacingRight=4;overflow=hidden;rotatable=0;points=[[0,0.5],[1,0.5]];portConstraint=eastwest;whiteSpace=wrap;html=1;" vertex="1" parent="bOV27ZRf-qqVnHiNed2t-96">
          <mxGeometry y="26" width="160" height="26" as="geometry" />
        </mxCell>
        <mxCell id="bOV27ZRf-qqVnHiNed2t-100" value="+ Email : string" style="text;strokeColor=none;fillColor=none;align=left;verticalAlign=top;spacingLeft=4;spacingRight=4;overflow=hidden;rotatable=0;points=[[0,0.5],[1,0.5]];portConstraint=eastwest;whiteSpace=wrap;html=1;" vertex="1" parent="bOV27ZRf-qqVnHiNed2t-96">
          <mxGeometry y="52" width="160" height="26" as="geometry" />
        </mxCell>
        <mxCell id="bOV27ZRf-qqVnHiNed2t-98" value="+ Password : string" style="text;strokeColor=none;fillColor=none;align=left;verticalAlign=top;spacingLeft=4;spacingRight=4;overflow=hidden;rotatable=0;points=[[0,0.5],[1,0.5]];portConstraint=eastwest;whiteSpace=wrap;html=1;" vertex="1" parent="bOV27ZRf-qqVnHiNed2t-96">
          <mxGeometry y="78" width="160" height="26" as="geometry" />
        </mxCell>
        <mxCell id="bOV27ZRf-qqVnHiNed2t-99" value="" style="line;strokeWidth=1;fillColor=none;align=left;verticalAlign=middle;spacingTop=-1;spacingLeft=3;spacingRight=3;rotatable=0;labelPosition=right;points=[];portConstraint=eastwest;strokeColor=inherit;" vertex="1" parent="bOV27ZRf-qqVnHiNed2t-96">
          <mxGeometry y="104" width="160" height="8" as="geometry" />
        </mxCell>
        <mxCell id="bOV27ZRf-qqVnHiNed2t-101" value="Utensil" style="swimlane;fontStyle=1;align=center;verticalAlign=top;childLayout=stackLayout;horizontal=1;startSize=26;horizontalStack=0;resizeParent=1;resizeParentMax=0;resizeLast=0;collapsible=1;marginBottom=0;whiteSpace=wrap;html=1;" vertex="1" parent="1">
          <mxGeometry x="1280" y="260" width="160" height="138" as="geometry" />
        </mxCell>
        <mxCell id="bOV27ZRf-qqVnHiNed2t-102" value="+ ID : int" style="text;strokeColor=none;fillColor=none;align=left;verticalAlign=top;spacingLeft=4;spacingRight=4;overflow=hidden;rotatable=0;points=[[0,0.5],[1,0.5]];portConstraint=eastwest;whiteSpace=wrap;html=1;" vertex="1" parent="bOV27ZRf-qqVnHiNed2t-101">
          <mxGeometry y="26" width="160" height="26" as="geometry" />
        </mxCell>
        <mxCell id="bOV27ZRf-qqVnHiNed2t-103" value="+ NAME : string" style="text;strokeColor=none;fillColor=none;align=left;verticalAlign=top;spacingLeft=4;spacingRight=4;overflow=hidden;rotatable=0;points=[[0,0.5],[1,0.5]];portConstraint=eastwest;whiteSpace=wrap;html=1;" vertex="1" parent="bOV27ZRf-qqVnHiNed2t-101">
          <mxGeometry y="52" width="160" height="26" as="geometry" />
        </mxCell>
        <mxCell id="bOV27ZRf-qqVnHiNed2t-104" value="+ QUANTITY : float" style="text;strokeColor=none;fillColor=none;align=left;verticalAlign=top;spacingLeft=4;spacingRight=4;overflow=hidden;rotatable=0;points=[[0,0.5],[1,0.5]];portConstraint=eastwest;whiteSpace=wrap;html=1;" vertex="1" parent="bOV27ZRf-qqVnHiNed2t-101">
          <mxGeometry y="78" width="160" height="26" as="geometry" />
        </mxCell>
        <mxCell id="bOV27ZRf-qqVnHiNed2t-106" value="+ IMAGE : string" style="text;strokeColor=none;fillColor=none;align=left;verticalAlign=top;spacingLeft=4;spacingRight=4;overflow=hidden;rotatable=0;points=[[0,0.5],[1,0.5]];portConstraint=eastwest;whiteSpace=wrap;html=1;" vertex="1" parent="bOV27ZRf-qqVnHiNed2t-101">
          <mxGeometry y="104" width="160" height="26" as="geometry" />
        </mxCell>
        <mxCell id="bOV27ZRf-qqVnHiNed2t-107" value="" style="line;strokeWidth=1;fillColor=none;align=left;verticalAlign=middle;spacingTop=-1;spacingLeft=3;spacingRight=3;rotatable=0;labelPosition=right;points=[];portConstraint=eastwest;strokeColor=inherit;" vertex="1" parent="bOV27ZRf-qqVnHiNed2t-101">
          <mxGeometry y="130" width="160" height="8" as="geometry" />
        </mxCell>
        <mxCell id="bOV27ZRf-qqVnHiNed2t-108" value="Recipe" style="swimlane;fontStyle=1;align=center;verticalAlign=top;childLayout=stackLayout;horizontal=1;startSize=26;horizontalStack=0;resizeParent=1;resizeParentMax=0;resizeLast=0;collapsible=1;marginBottom=0;whiteSpace=wrap;html=1;" vertex="1" parent="1">
          <mxGeometry x="789" y="810" width="220" height="346" as="geometry" />
        </mxCell>
        <mxCell id="bOV27ZRf-qqVnHiNed2t-109" value="+ ID : integer" style="text;strokeColor=none;fillColor=none;align=left;verticalAlign=top;spacingLeft=4;spacingRight=4;overflow=hidden;rotatable=0;points=[[0,0.5],[1,0.5]];portConstraint=eastwest;whiteSpace=wrap;html=1;" vertex="1" parent="bOV27ZRf-qqVnHiNed2t-108">
          <mxGeometry y="26" width="220" height="26" as="geometry" />
        </mxCell>
        <mxCell id="bOV27ZRf-qqVnHiNed2t-110" value="+ NAME : string" style="text;strokeColor=none;fillColor=none;align=left;verticalAlign=top;spacingLeft=4;spacingRight=4;overflow=hidden;rotatable=0;points=[[0,0.5],[1,0.5]];portConstraint=eastwest;whiteSpace=wrap;html=1;" vertex="1" parent="bOV27ZRf-qqVnHiNed2t-108">
          <mxGeometry y="52" width="220" height="26" as="geometry" />
        </mxCell>
        <mxCell id="bOV27ZRf-qqVnHiNed2t-112" value="+ TIME : integer" style="text;strokeColor=none;fillColor=none;align=left;verticalAlign=top;spacingLeft=4;spacingRight=4;overflow=hidden;rotatable=0;points=[[0,0.5],[1,0.5]];portConstraint=eastwest;whiteSpace=wrap;html=1;" vertex="1" parent="bOV27ZRf-qqVnHiNed2t-108">
          <mxGeometry y="78" width="220" height="26" as="geometry" />
        </mxCell>
        <mxCell id="bOV27ZRf-qqVnHiNed2t-113" value="+ DIFFICULTY : integer" style="text;strokeColor=none;fillColor=none;align=left;verticalAlign=top;spacingLeft=4;spacingRight=4;overflow=hidden;rotatable=0;points=[[0,0.5],[1,0.5]];portConstraint=eastwest;whiteSpace=wrap;html=1;" vertex="1" parent="bOV27ZRf-qqVnHiNed2t-108">
          <mxGeometry y="104" width="220" height="26" as="geometry" />
        </mxCell>
        <mxCell id="bOV27ZRf-qqVnHiNed2t-114" value="+ INSTRUCTIONS : string" style="text;strokeColor=none;fillColor=none;align=left;verticalAlign=top;spacingLeft=4;spacingRight=4;overflow=hidden;rotatable=0;points=[[0,0.5],[1,0.5]];portConstraint=eastwest;whiteSpace=wrap;html=1;" vertex="1" parent="bOV27ZRf-qqVnHiNed2t-108">
          <mxGeometry y="130" width="220" height="26" as="geometry" />
        </mxCell>
        <mxCell id="bOV27ZRf-qqVnHiNed2t-119" value="+ RATING : integer" style="text;strokeColor=none;fillColor=none;align=left;verticalAlign=top;spacingLeft=4;spacingRight=4;overflow=hidden;rotatable=0;points=[[0,0.5],[1,0.5]];portConstraint=eastwest;whiteSpace=wrap;html=1;" vertex="1" parent="bOV27ZRf-qqVnHiNed2t-108">
          <mxGeometry y="156" width="220" height="26" as="geometry" />
        </mxCell>
        <mxCell id="bOV27ZRf-qqVnHiNed2t-115" value="+ RATINGCOUNT : int" style="text;strokeColor=none;fillColor=none;align=left;verticalAlign=top;spacingLeft=4;spacingRight=4;overflow=hidden;rotatable=0;points=[[0,0.5],[1,0.5]];portConstraint=eastwest;whiteSpace=wrap;html=1;" vertex="1" parent="bOV27ZRf-qqVnHiNed2t-108">
          <mxGeometry y="182" width="220" height="26" as="geometry" />
        </mxCell>
        <mxCell id="bOV27ZRf-qqVnHiNed2t-116" value="+ CREATEDBY : int" style="text;strokeColor=none;fillColor=none;align=left;verticalAlign=top;spacingLeft=4;spacingRight=4;overflow=hidden;rotatable=0;points=[[0,0.5],[1,0.5]];portConstraint=eastwest;whiteSpace=wrap;html=1;" vertex="1" parent="bOV27ZRf-qqVnHiNed2t-108">
          <mxGeometry y="208" width="220" height="26" as="geometry" />
        </mxCell>
        <mxCell id="bOV27ZRf-qqVnHiNed2t-118" value="+ IMAGE : string" style="text;strokeColor=none;fillColor=none;align=left;verticalAlign=top;spacingLeft=4;spacingRight=4;overflow=hidden;rotatable=0;points=[[0,0.5],[1,0.5]];portConstraint=eastwest;whiteSpace=wrap;html=1;" vertex="1" parent="bOV27ZRf-qqVnHiNed2t-108">
          <mxGeometry y="234" width="220" height="26" as="geometry" />
        </mxCell>
        <mxCell id="bOV27ZRf-qqVnHiNed2t-117" value="+ Ingredients : Ingredient[]" style="text;strokeColor=none;fillColor=none;align=left;verticalAlign=top;spacingLeft=4;spacingRight=4;overflow=hidden;rotatable=0;points=[[0,0.5],[1,0.5]];portConstraint=eastwest;whiteSpace=wrap;html=1;" vertex="1" parent="bOV27ZRf-qqVnHiNed2t-108">
          <mxGeometry y="260" width="220" height="26" as="geometry" />
        </mxCell>
        <mxCell id="bOV27ZRf-qqVnHiNed2t-120" value="+ Utensils : Utensil[]" style="text;strokeColor=none;fillColor=none;align=left;verticalAlign=top;spacingLeft=4;spacingRight=4;overflow=hidden;rotatable=0;points=[[0,0.5],[1,0.5]];portConstraint=eastwest;whiteSpace=wrap;html=1;" vertex="1" parent="bOV27ZRf-qqVnHiNed2t-108">
          <mxGeometry y="286" width="220" height="26" as="geometry" />
        </mxCell>
        <mxCell id="bOV27ZRf-qqVnHiNed2t-121" value="+ User : User" style="text;strokeColor=none;fillColor=none;align=left;verticalAlign=top;spacingLeft=4;spacingRight=4;overflow=hidden;rotatable=0;points=[[0,0.5],[1,0.5]];portConstraint=eastwest;whiteSpace=wrap;html=1;" vertex="1" parent="bOV27ZRf-qqVnHiNed2t-108">
          <mxGeometry y="312" width="220" height="26" as="geometry" />
        </mxCell>
        <mxCell id="bOV27ZRf-qqVnHiNed2t-111" value="" style="line;strokeWidth=1;fillColor=none;align=left;verticalAlign=middle;spacingTop=-1;spacingLeft=3;spacingRight=3;rotatable=0;labelPosition=right;points=[];portConstraint=eastwest;strokeColor=inherit;" vertex="1" parent="bOV27ZRf-qqVnHiNed2t-108">
          <mxGeometry y="338" width="220" height="8" as="geometry" />
        </mxCell>
        <mxCell id="bOV27ZRf-qqVnHiNed2t-122" value="User" style="swimlane;fontStyle=1;align=center;verticalAlign=top;childLayout=stackLayout;horizontal=1;startSize=26;horizontalStack=0;resizeParent=1;resizeParentMax=0;resizeLast=0;collapsible=1;marginBottom=0;whiteSpace=wrap;html=1;" vertex="1" parent="1">
          <mxGeometry x="1280" y="408" width="160" height="164" as="geometry" />
        </mxCell>
        <mxCell id="bOV27ZRf-qqVnHiNed2t-123" value="+ ID : integer" style="text;strokeColor=none;fillColor=none;align=left;verticalAlign=top;spacingLeft=4;spacingRight=4;overflow=hidden;rotatable=0;points=[[0,0.5],[1,0.5]];portConstraint=eastwest;whiteSpace=wrap;html=1;" vertex="1" parent="bOV27ZRf-qqVnHiNed2t-122">
          <mxGeometry y="26" width="160" height="26" as="geometry" />
        </mxCell>
        <mxCell id="bOV27ZRf-qqVnHiNed2t-124" value="+ NAME : string" style="text;strokeColor=none;fillColor=none;align=left;verticalAlign=top;spacingLeft=4;spacingRight=4;overflow=hidden;rotatable=0;points=[[0,0.5],[1,0.5]];portConstraint=eastwest;whiteSpace=wrap;html=1;" vertex="1" parent="bOV27ZRf-qqVnHiNed2t-122">
          <mxGeometry y="52" width="160" height="26" as="geometry" />
        </mxCell>
        <mxCell id="bOV27ZRf-qqVnHiNed2t-126" value="+ LEVEL : integer" style="text;strokeColor=none;fillColor=none;align=left;verticalAlign=top;spacingLeft=4;spacingRight=4;overflow=hidden;rotatable=0;points=[[0,0.5],[1,0.5]];portConstraint=eastwest;whiteSpace=wrap;html=1;" vertex="1" parent="bOV27ZRf-qqVnHiNed2t-122">
          <mxGeometry y="78" width="160" height="26" as="geometry" />
        </mxCell>
        <mxCell id="bOV27ZRf-qqVnHiNed2t-127" value="+ XP : integer" style="text;strokeColor=none;fillColor=none;align=left;verticalAlign=top;spacingLeft=4;spacingRight=4;overflow=hidden;rotatable=0;points=[[0,0.5],[1,0.5]];portConstraint=eastwest;whiteSpace=wrap;html=1;" vertex="1" parent="bOV27ZRf-qqVnHiNed2t-122">
          <mxGeometry y="104" width="160" height="26" as="geometry" />
        </mxCell>
        <mxCell id="bOV27ZRf-qqVnHiNed2t-128" value="+ EMAIL : string" style="text;strokeColor=none;fillColor=none;align=left;verticalAlign=top;spacingLeft=4;spacingRight=4;overflow=hidden;rotatable=0;points=[[0,0.5],[1,0.5]];portConstraint=eastwest;whiteSpace=wrap;html=1;" vertex="1" parent="bOV27ZRf-qqVnHiNed2t-122">
          <mxGeometry y="130" width="160" height="26" as="geometry" />
        </mxCell>
        <mxCell id="bOV27ZRf-qqVnHiNed2t-125" value="" style="line;strokeWidth=1;fillColor=none;align=left;verticalAlign=middle;spacingTop=-1;spacingLeft=3;spacingRight=3;rotatable=0;labelPosition=right;points=[];portConstraint=eastwest;strokeColor=inherit;" vertex="1" parent="bOV27ZRf-qqVnHiNed2t-122">
          <mxGeometry y="156" width="160" height="8" as="geometry" />
        </mxCell>
        <mxCell id="bOV27ZRf-qqVnHiNed2t-135" value="" style="endArrow=open;endSize=12;dashed=1;html=1;rounded=0;entryX=0;entryY=0.5;entryDx=0;entryDy=0;exitX=1;exitY=0.5;exitDx=0;exitDy=0;" edge="1" parent="1" source="bOV27ZRf-qqVnHiNed2t-18" target="bOV27ZRf-qqVnHiNed2t-93">
          <mxGeometry width="160" relative="1" as="geometry">
            <mxPoint x="1080" y="560" as="sourcePoint" />
            <mxPoint x="1240" y="560" as="targetPoint" />
          </mxGeometry>
        </mxCell>
        <mxCell id="bOV27ZRf-qqVnHiNed2t-136" value="" style="endArrow=open;endSize=12;dashed=1;html=1;rounded=0;entryX=0;entryY=0.5;entryDx=0;entryDy=0;exitX=1.003;exitY=0.626;exitDx=0;exitDy=0;exitPerimeter=0;" edge="1" parent="1" source="bOV27ZRf-qqVnHiNed2t-18" target="bOV27ZRf-qqVnHiNed2t-97">
          <mxGeometry width="160" relative="1" as="geometry">
            <mxPoint x="1179" y="559" as="sourcePoint" />
            <mxPoint x="1300" y="445" as="targetPoint" />
          </mxGeometry>
        </mxCell>
        <mxCell id="bOV27ZRf-qqVnHiNed2t-138" value="" style="endArrow=open;endSize=12;dashed=1;html=1;rounded=0;entryX=0;entryY=0.5;entryDx=0;entryDy=0;exitX=1;exitY=0.5;exitDx=0;exitDy=0;" edge="1" parent="1" source="bOV27ZRf-qqVnHiNed2t-18" target="bOV27ZRf-qqVnHiNed2t-123">
          <mxGeometry width="160" relative="1" as="geometry">
            <mxPoint x="1179" y="559" as="sourcePoint" />
            <mxPoint x="1580" y="483" as="targetPoint" />
          </mxGeometry>
        </mxCell>
        <mxCell id="bOV27ZRf-qqVnHiNed2t-139" value="" style="endArrow=open;endSize=12;dashed=1;html=1;rounded=0;entryX=0;entryY=0.5;entryDx=0;entryDy=0;exitX=0;exitY=0.5;exitDx=0;exitDy=0;" edge="1" parent="1" source="bOV27ZRf-qqVnHiNed2t-8" target="bOV27ZRf-qqVnHiNed2t-109">
          <mxGeometry width="160" relative="1" as="geometry">
            <mxPoint x="1189" y="569" as="sourcePoint" />
            <mxPoint x="1590" y="493" as="targetPoint" />
            <Array as="points">
              <mxPoint x="690" y="673" />
              <mxPoint x="690" y="850" />
            </Array>
          </mxGeometry>
        </mxCell>
        <mxCell id="bOV27ZRf-qqVnHiNed2t-140" value="" style="endArrow=open;endSize=12;dashed=1;html=1;rounded=0;entryX=0;entryY=0.5;entryDx=0;entryDy=0;exitX=1;exitY=0.5;exitDx=0;exitDy=0;" edge="1" parent="1" source="bOV27ZRf-qqVnHiNed2t-19" target="bOV27ZRf-qqVnHiNed2t-102">
          <mxGeometry width="160" relative="1" as="geometry">
            <mxPoint x="1199" y="579" as="sourcePoint" />
            <mxPoint x="1600" y="503" as="targetPoint" />
          </mxGeometry>
        </mxCell>
        <mxCell id="bOV27ZRf-qqVnHiNed2t-141" value="" style="endArrow=open;endSize=12;dashed=1;html=1;rounded=0;entryX=0;entryY=0.5;entryDx=0;entryDy=0;exitX=1;exitY=0.5;exitDx=0;exitDy=0;" edge="1" parent="1" source="bOV27ZRf-qqVnHiNed2t-2" target="bOV27ZRf-qqVnHiNed2t-86">
          <mxGeometry width="160" relative="1" as="geometry">
            <mxPoint x="1209" y="589" as="sourcePoint" />
            <mxPoint x="1610" y="513" as="targetPoint" />
          </mxGeometry>
        </mxCell>
        <mxCell id="bOV27ZRf-qqVnHiNed2t-142" value="" style="endArrow=open;endSize=12;dashed=1;html=1;rounded=0;exitX=0.531;exitY=0.952;exitDx=0;exitDy=0;exitPerimeter=0;entryX=0.5;entryY=0;entryDx=0;entryDy=0;" edge="1" parent="1" source="bOV27ZRf-qqVnHiNed2t-46" target="bOV27ZRf-qqVnHiNed2t-76">
          <mxGeometry width="160" relative="1" as="geometry">
            <mxPoint x="1219" y="509" as="sourcePoint" />
            <mxPoint x="450" y="820" as="targetPoint" />
          </mxGeometry>
        </mxCell>
        <mxCell id="bOV27ZRf-qqVnHiNed2t-143" value="" style="endArrow=open;endSize=12;dashed=1;html=1;rounded=0;exitX=0.527;exitY=0.942;exitDx=0;exitDy=0;exitPerimeter=0;entryX=0.5;entryY=0;entryDx=0;entryDy=0;" edge="1" parent="1" source="bOV27ZRf-qqVnHiNed2t-46" target="bOV27ZRf-qqVnHiNed2t-81">
          <mxGeometry width="160" relative="1" as="geometry">
            <mxPoint x="380" y="783" as="sourcePoint" />
            <mxPoint x="460" y="830" as="targetPoint" />
          </mxGeometry>
        </mxCell>
        <mxCell id="bOV27ZRf-qqVnHiNed2t-144" value="" style="endArrow=open;endSize=12;dashed=1;html=1;rounded=0;exitX=0.529;exitY=1.019;exitDx=0;exitDy=0;exitPerimeter=0;entryX=0.5;entryY=0;entryDx=0;entryDy=0;" edge="1" parent="1" source="bOV27ZRf-qqVnHiNed2t-46" target="bOV27ZRf-qqVnHiNed2t-72">
          <mxGeometry width="160" relative="1" as="geometry">
            <mxPoint x="390" y="793" as="sourcePoint" />
            <mxPoint x="470" y="840" as="targetPoint" />
          </mxGeometry>
        </mxCell>
        <mxCell id="bOV27ZRf-qqVnHiNed2t-145" value="" style="endArrow=open;endSize=12;dashed=1;html=1;rounded=0;exitX=0.5;exitY=0;exitDx=0;exitDy=0;entryX=1;entryY=0.5;entryDx=0;entryDy=0;" edge="1" parent="1" source="bOV27ZRf-qqVnHiNed2t-20" target="bOV27ZRf-qqVnHiNed2t-86">
          <mxGeometry width="160" relative="1" as="geometry">
            <mxPoint x="400" y="803" as="sourcePoint" />
            <mxPoint x="1520" y="190" as="targetPoint" />
            <Array as="points">
              <mxPoint x="355" y="40" />
              <mxPoint x="1520" y="40" />
              <mxPoint x="1520" y="129" />
            </Array>
          </mxGeometry>
        </mxCell>
        <mxCell id="bOV27ZRf-qqVnHiNed2t-146" value="" style="endArrow=open;endSize=12;dashed=1;html=1;rounded=0;entryX=1;entryY=0.5;entryDx=0;entryDy=0;" edge="1" parent="1" target="bOV27ZRf-qqVnHiNed2t-102">
          <mxGeometry width="160" relative="1" as="geometry">
            <mxPoint x="1520" y="130" as="sourcePoint" />
            <mxPoint x="1590" y="227" as="targetPoint" />
            <Array as="points">
              <mxPoint x="1520" y="300" />
            </Array>
          </mxGeometry>
        </mxCell>
        <mxCell id="bOV27ZRf-qqVnHiNed2t-147" value="" style="endArrow=open;endSize=12;dashed=1;html=1;rounded=0;entryX=1;entryY=0.5;entryDx=0;entryDy=0;" edge="1" parent="1" target="bOV27ZRf-qqVnHiNed2t-123">
          <mxGeometry width="160" relative="1" as="geometry">
            <mxPoint x="1520" y="300" as="sourcePoint" />
            <mxPoint x="1450" y="309" as="targetPoint" />
            <Array as="points">
              <mxPoint x="1520" y="447" />
            </Array>
          </mxGeometry>
        </mxCell>
      </root>
    </mxGraphModel>
  </diagram>
</mxfile>
